<?xml version="1.0" encoding="UTF-8" standalone="no"?>
<svg xmlns:dc="http://purl.org/dc/elements/1.1/"
   xmlns:cc="http://creativecommons.org/ns#"
   xmlns:rdf="http://www.w3.org/1999/02/22-rdf-syntax-ns#"
   xmlns:svg="http://www.w3.org/2000/svg"
   xmlns="http://www.w3.org/2000/svg"
   xmlns:xlink="http://www.w3.org/1999/xlink"
   xmlns:sodipodi="http://sodipodi.sourceforge.net/DTD/sodipodi-0.dtd"
   xmlns:inkscape="http://www.inkscape.org/namespaces/inkscape" width="98.292709mm" height="79.410622mm" viewBox="0 0 98.292709 79.410622" version="1.1" id="svg8" inkscape:version="1.0.1 (c497b03c, 2020-09-10)" sodipodi:docname="drawing.svg">
   <defs id="defs2" />
   <sodipodi:namedview id="base" pagecolor="#ffffff" bordercolor="#666666" borderopacity="1.0" inkscape:pageopacity="0.0" inkscape:pageshadow="2" inkscape:zoom="0.35" inkscape:cx="162.79287" inkscape:cy="-149.98269" inkscape:document-units="mm" inkscape:current-layer="layer1" inkscape:document-rotation="0" showgrid="false" inkscape:window-width="1252" inkscape:window-height="1027" inkscape:window-x="0" inkscape:window-y="25" inkscape:window-maximized="0" fit-margin-top="0" fit-margin-left="0" fit-margin-right="0" fit-margin-bottom="0" />
   <metadata id="metadata5">
      <rdf:RDF>
         <cc:Work rdf:about="">
            <dc:format>image/svg+xml</dc:format>
            <dc:type rdf:resource="http://purl.org/dc/dcmitype/StillImage" />
            <dc:title></dc:title>
         </cc:Work>
      </rdf:RDF>
   </metadata>
   <g inkscape:label="Layer 1" inkscape:groupmode="layer" id="layer1" transform="translate(-62.761054,-187.84959)">
      <rect x="-13.858499" y="6.05896" class="st0" width="222.75272" height="157.21542" id="rect12" style="stroke-width:0.264583" />
      <g class="st1" id="g69" transform="matrix(0.26458333,0,0,0.26458333,-13.858499,5.9266681)">
         <g class="st2" id="g60">
            <path class="st3" d="m 737.8,277.2 c -20.6,0 -39.1,-8.8 -52,-22.9 h -32 c 16.6,29.2 48.1,49 84,49 35.9,0 67.4,-19.7 84,-49 h -32 c -13,14.1 -31.5,22.9 -52,22.9 z" id="path14" />

            <path class="st3" d="m 737.8,272.2 c 17.4,0 33.2,-6.8 45,-17.9 h -90 c 11.7,11.1 27.6,17.9 45,17.9 z" id="path16" />

            <path class="st4" d="m 737.8,110.1 c 51.9,0 94.4,41.2 96.5,92.6 h 5 c -2.1,-54.2 -46.8,-97.6 -101.5,-97.6 -54.7,0 -99.4,43.4 -101.5,97.6 h 5 c 2.1,-51.5 44.5,-92.6 96.5,-92.6 z" id="path18" />

            <path class="st4" d="m 737.8,303.3 c -36,0 -67.4,-19.7 -84,-49 H 648 c 17.1,32.1 50.9,54 89.7,54 38.8,0 72.6,-21.9 89.7,-54 h -5.7 c -16.6,29.2 -48,49 -83.9,49 z" id="path20" />

            <path class="st4" d="m 737.8,272.2 c -17.4,0 -33.2,-6.8 -45,-17.9 h -7 c 12.9,14.1 31.4,22.9 52,22.9 20.6,0 39.1,-8.8 52,-22.9 h -7 c -11.8,11.1 -27.6,17.9 -45,17.9 z" id="path22" />

            <path class="st4" d="m 672.2,207.6 h 131.1 c 0,-0.3 0,-0.7 0,-1 0,-1.4 -0.1,-2.7 -0.1,-4 H 672.3 c -0.1,1.3 -0.1,2.7 -0.1,4 0,0.4 0,0.7 0,1 z" id="path24" />

            <path class="st4" d="m 834.3,202.6 h -26.1 c 0.1,1.3 0.1,2.7 0.1,4 0,0.3 0,0.7 0,1 h 26 c 0,-0.3 0,-0.7 0,-1 0.1,-1.3 0,-2.6 0,-4 z" id="path26" />

            <path class="st4" d="m 636.2,202.6 h -9.8 v 5 h 9.7 c 0,-0.3 0,-0.7 0,-1 0.1,-1.3 0.1,-2.6 0.1,-4 z" id="path28" />

            <path class="st4" d="m 667.2,206.7 c 0,-1.4 0,-2.7 0.1,-4 h -26.1 c -0.1,1.3 -0.1,2.7 -0.1,4 0,0.3 0,0.7 0,1 h 26 c 0.1,-0.4 0.1,-0.7 0.1,-1 z" id="path30" />

            <path class="st4" d="m 839.3,207.6 h 9.7 v -5 h -9.8 c 0.1,1.3 0.1,2.7 0.1,4 0.1,0.4 0,0.7 0,1 z" id="path32" />

            <path class="st4" d="m 834.4,206.7 c 0,0.3 0,0.7 0,1 h 5 c 0,-0.3 0,-0.7 0,-1 0,-1.3 0,-2.7 -0.1,-4 h -5 c 0,1.3 0.1,2.6 0.1,4 z" id="path34" />

            <path class="st4" d="m 641.2,206.7 c 0,-1.3 0,-2.7 0.1,-4 h -5 c -0.1,1.3 -0.1,2.7 -0.1,4 0,0.3 0,0.7 0,1 h 5 c 0,-0.4 0,-0.7 0,-1 z" id="path36" />

            <path class="st4" d="m 672.2,206.7 c 0,-1.4 0.1,-2.7 0.1,-4 h -5 c -0.1,1.3 -0.1,2.7 -0.1,4 0,0.3 0,0.7 0,1 h 5 c 0,-0.4 0,-0.7 0,-1 z" id="path38" />

            <path class="st4" d="m 803.3,206.7 c 0,0.3 0,0.7 0,1 h 5 c 0,-0.3 0,-0.7 0,-1 0,-1.4 0,-2.7 -0.1,-4 h -5 c 0.1,1.3 0.1,2.6 0.1,4 z" id="path40" />

            <path class="st4" d="m 692.8,254.3 h 90 c 1.7,-1.6 3.3,-3.3 4.8,-5 H 688 c 1.5,1.7 3.1,3.4 4.8,5 z" id="path42" />

            <path class="st4" d="m 789.8,254.3 h 32 c 0.9,-1.6 1.8,-3.3 2.7,-5 H 794 c -1.4,1.7 -2.8,3.4 -4.2,5 z" id="path44" />

            <path class="st4" d="m 849.1,254.3 v -5 H 830 c -0.8,1.7 -1.6,3.4 -2.5,5 z" id="path46" />

            <path class="st4" d="m 681.6,249.3 h -30.5 c 0.8,1.7 1.7,3.4 2.7,5 h 32 c -1.5,-1.6 -2.9,-3.3 -4.2,-5 z" id="path48" />

            <path class="st4" d="m 626.4,249.3 v 5 H 648 c -0.9,-1.6 -1.7,-3.3 -2.5,-5 z" id="path50" />

            <path class="st4" d="m 821.8,254.3 h 5.7 c 0.9,-1.6 1.7,-3.3 2.5,-5 h -5.5 c -0.9,1.7 -1.8,3.4 -2.7,5 z" id="path52" />

            <path class="st4" d="m 651.1,249.3 h -5.5 c 0.8,1.7 1.6,3.4 2.5,5 h 5.7 c -1,-1.6 -1.9,-3.3 -2.7,-5 z" id="path54" />

            <path class="st4" d="m 782.7,254.3 h 7 c 1.5,-1.6 2.9,-3.3 4.2,-5 h -6.4 c -1.5,1.7 -3.1,3.4 -4.8,5 z" id="path56" />

            <path class="st4" d="m 688,249.3 h -6.4 c 1.3,1.7 2.7,3.4 4.2,5 h 7 c -1.7,-1.6 -3.3,-3.3 -4.8,-5 z" id="path58" />

         </g>

         <path id="SVGID_x5F_1_x5F_" class="st5" d="m 681,165.6 c 22.7,-31.4 66.5,-38.4 97.9,-15.8 31.4,22.7 38.4,66.5 15.8,97.9 -22.6,31.4 -66.5,38.4 -97.9,15.8 C 665.4,240.9 658.3,197 681,165.6 Z" />

         <text class="st2" id="text67">
            <textPath xlink:href="#SVGID_x5F_1_x5F_" startOffset="99.641997%" id="textPath65">
               <tspan style="font-size:25.2987px;font-family:SSNicksonOne;letter-spacing:208" id="tspan63">Tarot</tspan>
            </textPath>
         </text>

      </g>
      <image xlink:href="../Codebase/_DENTAL_/dental-react/src/assets/25B78936.jpg" y="1.1723967" x="224.0799" id="image71" height="203.2" width="361.42084" style="display:none;overflow:visible">
      </image>
      <g class="st1" id="g85" transform="matrix(0.26458333,0,0,0.26458333,-13.858499,5.9266681)">
         <g class="st6" id="g75">
            <path class="st7" d="m 311.6,239.8 c 6,-3.5 12.1,-7.1 18.1,-10.6 2,-1.2 4,-2.4 6.3,-3.1 7.3,-2.2 15.9,1.1 23,-1.8 2.6,-1.1 5.1,-3 8,-2.5 3,0.5 4.4,3.4 6.7,5.1 4.6,3.3 12.2,1.5 17.1,4.5 2.8,1.8 4.1,4.9 5.1,7.8 3.4,9.4 6.9,19.1 5.9,29 -12.5,2.6 -25.5,2.5 -38.3,2.3 -16.4,-0.2 -32.7,-0.4 -49.1,-0.6 -4.5,-0.1 -10.1,-0.8 -11.5,-4.5 -0.6,-1.5 -0.2,-3.2 0.2,-4.8 1.8,-7.1 3.5,-14.2 5.3,-21.3" id="path73" />

         </g>

         <g class="st6" id="g79">
            <path class="st7" d="m 521,270.4 c -1.6,-7.8 -3.8,-16.5 -11.5,-20.6 -7.2,-3.9 -17,-2.4 -24,-6.6 -11,-6.6 -8.8,-23 -19.8,-29.6 -2.3,-1.4 -5.4,-2.2 -8,-1.1 -4.5,1.9 -3.8,7.6 -2.5,11.9 -1.2,2.9 -6.1,2.7 -9.2,1.3 -3.1,-1.4 -6.5,-3.6 -9.8,-2.6 -4.1,1.2 -5,6.2 -8.6,8.4 -2.1,1.3 -4.8,1.5 -6.7,2.9 -1.5,1.2 -2,3 -2.7,4.6 -5.2,13.9 -18.3,25.3 -34.1,29.9 7.9,2 16.4,0.6 24.6,0 8,-0.6 16.1,-0.5 24.2,-0.4 29.4,0.3 58.7,0.7 88.1,1" id="path77" />

         </g>

         <g class="st6" id="g83">
            <path class="st7" d="m 493.2,263.1 c -4.2,-3 -5.4,-8.1 -6.3,-12.7 -1,-5 -1.9,-10 -2.9,-15 -0.5,-2.4 -0.9,-4.8 -0.2,-7.1 0.7,-2.3 2.9,-4.4 5.7,-4.5 1,0 2.1,0.3 3,0.7 3.4,1.4 6,4.4 6.7,7.6 0.7,3.5 -0.5,7 -0.5,10.5 0,5 2.4,9.7 4.8,14.2" id="path81" />

         </g>

      </g>
      <g id="g139" transform="matrix(0.26458333,0,0,0.26458333,0.50459624,148.80167)">
         <g id="g99">
            <path class="st8" d="m 360.5,368.1 c -0.1,-0.6 -0.3,-1.2 -0.5,-2 -0.1,-0.3 -0.2,-0.7 -0.4,-1 -0.2,-0.4 -0.3,-0.7 -0.4,-0.9 -0.3,-0.7 -0.7,-1.3 -1,-1.8 -0.4,-0.6 -0.8,-1.2 -1.3,-1.6 -0.5,-0.5 -1,-0.9 -1.6,-1.4 -0.6,-0.4 -1.2,-0.8 -1.8,-1.1 -0.7,-0.3 -1.3,-0.6 -1.9,-0.8 -0.6,-0.2 -1.3,-0.4 -2,-0.5 -0.6,-0.1 -1.3,-0.2 -2,-0.3 -0.5,-0.1 -1.2,-0.1 -2.1,-0.1 h -5.9 -1.1 c -0.1,0 -0.3,0 -0.9,0 -0.3,0 -0.5,0.1 -0.7,0.3 -0.2,0.2 -0.3,0.4 -0.3,0.7 v 2 7.9 2 2 2 6 7.9 c 0,0.3 0.1,0.5 0.3,0.7 0.2,0.2 0.4,0.3 0.7,0.3 h 3 c 0.2,0 0.6,0 1.1,0 0.5,0 0.9,0 1,0 h 2 c 0.2,0 0.5,0 1,0 0.7,0 1.4,0 2.1,-0.1 0.8,-0.1 1.5,-0.2 2,-0.3 0.9,-0.2 1.6,-0.4 2,-0.6 0.6,-0.2 1.3,-0.5 1.9,-0.9 0.4,-0.2 1,-0.6 1.7,-1.2 0.4,-0.3 0.9,-0.8 1.5,-1.4 0.5,-0.5 0.9,-1.1 1.3,-1.7 0.4,-0.6 0.7,-1.2 0.9,-1.8 0.3,-0.7 0.6,-1.4 0.7,-1.9 0.2,-0.7 0.4,-1.4 0.5,-2 0.1,-0.7 0.2,-1.3 0.3,-2 0.1,-0.5 0.1,-1.1 0.1,-2.1 0,-0.9 0,-1.6 -0.1,-2 0.2,-0.3 0.2,-0.7 -0.1,-2.3 z m -16.4,10.1 c 0,-0.3 0,-0.6 0,-0.9 v -4 c 0,-0.4 0,-0.7 0,-1 0,-0.3 0,-0.6 0,-1 v -6 c 0,-0.4 0,-0.7 0,-1 0,-0.3 0,-0.6 -0.1,-0.9 h 1.7 c 0.7,0 1.4,0 2,0.1 0.7,0.1 1.4,0.3 1.9,0.5 0.7,0.2 1.2,0.5 1.6,0.8 0.5,0.5 0.9,1 1.2,1.5 0.3,0.5 0.5,1.1 0.7,1.8 0.2,0.6 0.3,1.3 0.4,1.9 0,0.2 0,0.5 0.1,0.9 0,0.4 0.1,0.8 0.1,1.1 0,0.7 0,1.4 -0.1,2 0,0.5 -0.1,1.2 -0.4,1.9 -0.2,0.8 -0.4,1.4 -0.6,1.8 -0.3,0.5 -0.7,1 -1.2,1.5 -0.5,0.5 -1,0.8 -1.6,1 -0.5,0.2 -1.1,0.4 -1.8,0.5 -0.6,0.1 -1.3,0.1 -2,0.1 h -1.9 v -1.9 c 0,-0.1 0,-0.4 0,-0.7 z" id="path87" />

            <path class="st8" d="m 388,381.4 c -0.2,-0.2 -0.4,-0.3 -0.7,-0.3 h -2 c -0.6,0 -0.8,0 -1,0 h -4.9 -2 l -1.9,0.1 v -2.1 -3.1 c 0,-0.1 0,-0.4 -0.1,-0.9 h 3.6 1.8 c 0.3,0 0.6,0 0.8,0 0.3,0 0.6,0 0.9,0 h 1.8 c 0.3,0 0.5,-0.1 0.7,-0.3 0.2,-0.2 0.3,-0.4 0.3,-0.7 0,-0.5 0,-0.9 0,-1.2 0,-0.3 0,-0.7 0,-1.2 0,-0.5 0,-0.8 0,-1.2 0,-0.3 0,-0.7 0,-1.2 0,-0.3 -0.1,-0.5 -0.3,-0.7 -0.2,-0.2 -0.4,-0.3 -0.7,-0.3 h -7.2 l -1.7,0.1 c 0,-0.3 0,-0.6 0,-0.8 0,-0.2 0,-0.5 0,-0.8 0,-0.3 0,-0.6 0,-0.9 0,-0.2 0,-0.5 0,-0.8 v -1.6 h 5.7 c 0.4,0 0.7,0 1,0 0.3,0 0.6,0 1,0 h 3.8 c 0.3,0 0.5,-0.1 0.7,-0.3 0.2,-0.2 0.3,-0.4 0.3,-0.7 0,-0.4 0,-0.7 0,-0.9 0,-0.2 0,-0.5 0,-0.8 v -1.8 -1.7 c 0,-0.2 -0.1,-0.4 -0.3,-0.6 -0.2,-0.2 -0.4,-0.3 -0.7,-0.3 -0.4,0 -0.7,0 -1,0 -0.3,0 -0.6,0 -1,0 h -11.7 c -0.4,0 -0.7,0 -1,0 -0.3,0 -0.6,0 -1.1,0 h -1.9 c -0.3,0 -0.5,0.1 -0.7,0.3 -0.2,0.2 -0.3,0.4 -0.3,0.7 v 2 10.8 c 0,0.2 0,0.5 0,1.1 v 8.9 c 0,0.2 0,0.5 0,1.1 v 6 c 0,0.3 0.1,0.5 0.3,0.7 0.2,0.2 0.4,0.3 0.7,0.3 h 2 c 0.4,0 0.7,0 1,0 0.3,0 0.6,0 1,0 h 8.1 c 0.4,0 0.7,0 1,0 0.3,0 0.6,0 1,0 h 4 c 0.3,0 0.5,-0.1 0.7,-0.3 0.2,-0.2 0.3,-0.4 0.3,-0.7 v -5.1 c -0.1,-0.3 -0.2,-0.6 -0.3,-0.8 z" id="path89" />

            <path class="st8" d="M 419.3,356.5 H 414 c -0.3,0 -0.5,0.1 -0.7,0.3 -0.2,0.2 -0.3,0.4 -0.3,0.6 0,0.4 0,0.7 0,1 0,0.3 0,0.6 0,1 0,0.5 0,0.9 0,1 v 4.8 c 0,0.4 0,0.7 0,1 0,0.3 0,0.6 0,1 0,0.5 0,0.9 0,1 v 2.9 c 0,0.4 0,0.7 0,0.9 0,0.3 0,0.5 0,0.8 0,0.4 0,0.7 0,1 -0.1,-0.2 -0.2,-0.4 -0.4,-0.7 -0.2,-0.4 -0.4,-0.8 -0.5,-1 -0.1,-0.2 -0.3,-0.5 -0.5,-0.8 l -1.9,-3.5 c -0.2,-0.4 -0.4,-0.7 -0.5,-0.9 -0.1,-0.2 -0.3,-0.5 -0.4,-0.9 l -1,-1.7 -1,-1.7 c -0.3,-0.6 -0.6,-1.2 -1,-1.8 l -0.5,-0.9 c -0.1,-0.2 -0.3,-0.5 -0.5,-0.9 l -1,-1.8 c -0.3,-0.5 -0.7,-0.7 -1.2,-0.7 -0.3,0 -0.6,0 -0.9,0 -0.2,0 -0.5,0 -0.8,0 h -3.6 c -0.3,0 -0.5,0.1 -0.7,0.3 -0.2,0.2 -0.3,0.4 -0.3,0.6 v 4 1 3 4.9 c 0,0.2 0,0.5 0,1.1 v 8.9 c 0,0.2 0,0.5 0,1.1 0,0.5 0,0.9 0,1 v 5 c 0,0.3 0.1,0.5 0.3,0.7 0.2,0.2 0.4,0.3 0.7,0.3 0.3,0 0.6,0 0.9,0 0.5,0 1.2,0 1.7,0 h 0.9 c 0.3,0 0.6,0 0.9,0 0.2,0 0.5,0 0.9,0 0.2,0 0.4,-0.1 0.6,-0.3 0.2,-0.2 0.3,-0.4 0.3,-0.7 v -1.9 c 0,-0.4 0,-0.7 0,-1 0,-0.3 0,-0.6 0,-1 0,-0.4 0,-0.7 0,-1 0,-0.3 0,-0.6 0,-1 v -9.7 c 0,-0.3 0,-0.5 0,-0.8 0.1,0.2 0.3,0.5 0.4,0.7 l 1,1.7 1,1.8 c 0.2,0.3 0.4,0.6 0.4,0.9 l 3.4,6.1 c 0.5,0.9 0.8,1.5 1,1.8 l 1.9,3.5 c 0.2,0.3 0.5,0.7 1.2,0.7 0.3,0 0.6,0 0.9,0 0.3,0 0.5,0 0.9,0 0.5,0 0.8,0 0.9,0 h 2.7 c 0.2,0 0.5,-0.1 0.6,-0.3 0.1,-0.2 0.3,-0.4 0.3,-0.7 v -2 -2 c 0,-0.6 0,-0.8 0,-1 v -24.9 c 0,-0.2 -0.1,-0.5 -0.3,-0.7 -0.1,-0.1 -0.3,-0.1 -0.5,-0.1 z" id="path91" />

            <path class="st8" d="m 449.4,356.5 h -17.1 -3.8 c -0.3,0 -0.5,0.1 -0.7,0.3 -0.2,0.2 -0.3,0.4 -0.3,0.7 0,0.3 0,0.6 0,0.8 0,0.2 0,0.5 0,0.8 v 1.7 c 0,0.4 0,0.7 0,0.9 0,0.2 0,0.5 0,0.8 0,0.3 0.1,0.5 0.3,0.7 0.2,0.2 0.4,0.3 0.7,0.3 0.4,0 0.7,0 0.9,0 h 4.3 c 0.6,0 0.8,0 0.9,0 h 0.8 l -0.1,5.9 v 2 4 2 2 1 3 2 2 c 0,0.3 0.1,0.5 0.3,0.7 0.2,0.2 0.4,0.3 0.7,0.3 h 3.6 0.9 c 0.1,0 0.3,0 0.8,0 0.3,0 0.5,-0.1 0.7,-0.3 0.2,-0.2 0.3,-0.4 0.3,-0.7 v -15.9 -2 -2 -2 -1.9 h 3.4 1.7 1.7 c 0.3,0 0.5,-0.1 0.7,-0.3 0.2,-0.2 0.3,-0.4 0.3,-0.7 0,-0.3 0,-0.6 0,-0.8 0,-0.2 0,-0.5 0,-0.9 v -3.4 c 0,-0.3 -0.1,-0.5 -0.3,-0.7 -0.2,-0.2 -0.4,-0.3 -0.7,-0.3 z" id="path93" />

            <path class="st8" d="m 479.2,386.2 c -0.1,-0.2 -0.2,-0.5 -0.3,-0.8 l -1.2,-3.8 c -0.1,-0.3 -0.2,-0.6 -0.3,-0.9 -0.1,-0.2 -0.2,-0.6 -0.3,-1 l -0.3,-0.9 c 0,-0.1 -0.1,-0.3 -0.3,-1 l -0.7,-1.8 c -0.3,-1.1 -0.5,-1.7 -0.6,-1.9 -0.1,-0.3 -0.2,-0.6 -0.2,-0.8 -0.1,-0.3 -0.2,-0.6 -0.4,-1.1 l -0.6,-1.9 -1.7,-5.6 -0.7,-1.8 c -0.1,-0.2 -0.1,-0.5 -0.3,-0.9 0,-0.1 -0.1,-0.3 -0.3,-1 l -0.7,-1.8 c -0.1,-0.4 -0.2,-0.7 -0.3,-0.9 -0.1,-0.3 -0.2,-0.6 -0.3,-1 -0.1,-0.2 -0.2,-0.4 -0.4,-0.6 -0.2,-0.2 -0.4,-0.2 -0.7,-0.2 -0.4,0 -0.7,0 -1,0 -0.3,0 -0.6,0 -1,0 H 463 c -0.5,0 -0.9,0.3 -1.1,0.8 l -0.6,1.9 c -0.1,0.4 -0.2,0.7 -0.3,0.9 -0.1,0.3 -0.2,0.5 -0.3,0.9 l -1.2,3.8 c -0.1,0.4 -0.2,0.7 -0.3,1 -0.1,0.3 -0.2,0.5 -0.3,0.9 -0.1,0.4 -0.2,0.7 -0.3,0.9 -0.1,0.3 -0.2,0.6 -0.3,0.9 -0.2,0.6 -0.4,1.2 -0.6,1.9 l -0.6,1.8 -0.7,1.9 c -0.1,0.3 -0.1,0.5 -0.2,0.7 l -0.1,0.2 c 0,0.1 -0.1,0.2 -0.1,0.4 0,0.1 -0.1,0.3 -0.2,0.6 l -1.2,3.7 c -0.1,0.4 -0.2,0.7 -0.3,1 -0.1,0.3 -0.2,0.6 -0.3,0.9 l -0.2,0.9 c -0.1,0.3 -0.2,0.6 -0.3,1 l -0.3,0.9 c -0.1,0.3 -0.2,0.6 -0.3,1 l -0.3,0.9 v 0.1 c 0,0 0,0.2 -0.2,0.8 -0.1,0.2 -0.1,0.5 0.1,0.7 v 0 c 0.1,0.2 0.4,0.4 0.6,0.4 0.4,0 0.7,0 0.9,0 0.2,0 0.6,0 0.9,0 h 3.7 c 0.3,0 0.5,-0.1 0.7,-0.2 0.2,-0.2 0.4,-0.4 0.4,-0.6 0.2,-0.5 0.3,-0.9 0.4,-1.2 0.1,-0.3 0.1,-0.6 0.2,-0.9 l 0.6,-2.1 c 0.2,-0.7 0.4,-1.4 0.6,-2.1 h 4.3 c 0.6,0 0.9,0 1,0 h 2.2 c 0.1,0 0.4,0 1,0 l 0.6,2.1 0.7,2 c 0.2,0.7 0.4,1.4 0.6,2.1 0,0.3 0.2,0.5 0.4,0.6 0.2,0.1 0.4,0.2 0.7,0.2 0.3,0 0.6,0 0.9,0 0.3,0 0.6,0 1,0 h 1.9 c 0.4,0 0.7,0 1,0 0.2,0 0.5,0 0.9,0 0.2,0 0.4,-0.1 0.6,-0.2 0.2,-0.2 0.3,-0.4 0.3,-0.6 v -0.2 c -0.2,-0.4 -0.3,-0.8 -0.4,-1 z m -11,-11.7 h -4.6 l 1,-3.4 c 0.1,-0.3 0.2,-0.6 0.3,-0.9 l 0.3,-0.9 0.4,-1.8 0.3,-0.8 c 0.1,0.2 0.2,0.5 0.3,0.8 0.2,0.6 0.4,1.2 0.5,1.8 0.1,0.4 0.2,0.7 0.3,0.9 0.1,0.2 0.2,0.5 0.3,0.9 0.1,0.4 0.2,0.7 0.3,0.9 0.1,0.2 0.1,0.5 0.2,0.8 z m -15.4,13.2 z" id="path95" />

            <path class="st8" d="m 504.8,381.4 c -0.2,-0.2 -0.4,-0.3 -0.7,-0.3 h -7.3 c -0.4,0 -0.6,0 -0.9,0 -0.3,0 -0.6,0 -0.9,0 h -1.7 v -1.9 -2 -4 -2 -2 -3.9 -7 c 0,-0.1 0,-0.3 0,-0.9 0,-0.3 -0.1,-0.5 -0.3,-0.7 -0.2,-0.2 -0.4,-0.3 -0.7,-0.3 h -3.5 c -0.4,0 -0.6,0 -0.9,0 -0.3,0 -0.5,0 -0.9,0 -0.3,0 -0.5,0.1 -0.7,0.3 -0.2,0.2 -0.3,0.4 -0.3,0.7 v 2.9 c 0,0.2 0,0.5 0,1.1 v 4 5.9 c 0,0.5 0,0.9 0,1 v 3.9 c 0,0.2 0,0.5 0,1.1 v 2 c 0,0.5 0,0.9 0,1 v 3.9 c 0,0.2 0,0.5 0,1.1 v 2 c 0,0.3 0.1,0.5 0.3,0.7 0.2,0.2 0.4,0.3 0.7,0.3 h 1.9 c 0.4,0 0.7,0 0.9,0 0.3,0 0.6,0 0.9,0 0,0 0,0 0,0 h 4.7 c 0.2,0 0.5,0 1,0 0,0 0,0 0,0 h 7.6 c 0.3,0 0.5,-0.1 0.7,-0.3 0.1,-0.2 0.2,-0.4 0.2,-0.7 v -5.1 c 0.2,-0.3 0.1,-0.6 -0.1,-0.8 z" id="path97" />

         </g>

         <g id="g121">
            <path class="st8" d="m 240.3,342.8 c 0,0 -0.2,0 -0.5,0 -0.3,0 -0.7,0 -1.2,0 -0.5,0 -0.9,0 -1.2,0 -0.3,0 -0.7,0 -1.2,0 -0.2,0 -0.4,-0.1 -0.6,-0.3 -0.2,-0.2 -0.2,-0.4 -0.2,-0.6 v -2.7 -2.7 -1.3 c 0,-0.2 -0.1,-0.7 -0.1,-1.3 0,-0.7 0,-1.1 0.1,-1.3 v -1.3 -2.7 -2.8 l -0.1,-2.7 v -2.7 c 0,-0.7 0,-1.1 0.1,-1.3 v -1.3 -1.3 l -0.1,-1.3 v -2.7 l 0.1,-2.7 v -1.3 l -0.1,-1.3 0.1,-2.7 v -2.8 c 0,-0.2 0.1,-0.4 0.2,-0.5 0.1,-0.1 0.3,-0.2 0.6,-0.2 h 2.4 2.4 c 0.4,0 0.8,0 1.2,0 0.3,0 0.7,0 1.2,0 0.5,0 0.9,0.2 1.2,0.7 l 1.3,2.4 c 0.3,0.5 0.5,0.9 0.6,1.2 0.2,0.3 0.4,0.7 0.6,1.2 0.4,0.8 0.9,1.6 1.3,2.4 l 1.4,2.4 1.3,2.4 c 0.2,0.5 0.4,0.8 0.6,1.2 0.2,0.3 0.4,0.7 0.7,1.3 l 1.3,2.4 1.3,2.4 c 0.2,0.4 0.4,0.8 0.6,1.1 0.2,0.3 0.4,0.8 0.7,1.3 0.3,0.5 0.5,0.9 0.7,1.3 0.2,0.3 0.4,0.7 0.6,1.2 h 0.1 c 0.1,0 0.1,0 0.1,-0.1 v -1.3 c 0,-0.3 -0.1,-0.8 -0.1,-1.6 0,-0.4 0,-0.8 0,-1.1 0,-0.3 0,-0.8 0,-1.3 v -2.6 -1.9 c 0,-0.2 -0.1,-0.7 -0.1,-1.3 0,-0.5 0,-1 0,-1.3 0,-0.4 0,-0.8 0,-1.3 v -2.6 -2.6 -1.3 c 0,-0.2 -0.1,-0.7 -0.1,-1.3 0,-0.5 0,-1 0,-1.3 0,-0.4 0,-0.8 0,-1.3 0,-0.2 0.1,-0.4 0.2,-0.5 0.1,-0.2 0.3,-0.3 0.6,-0.3 h 2.4 2.4 2.4 c 0.2,0 0.4,0.1 0.5,0.3 0.2,0.2 0.3,0.3 0.3,0.5 v 2.8 2.7 2.7 2.7 2.7 2.7 2.7 2.7 2.7 2.8 2.7 2.7 1.3 c 0,0.2 -0.1,0.7 -0.1,1.3 l 0.1,2.7 -0.1,2.7 c 0,0.2 -0.1,0.4 -0.2,0.6 -0.2,0.2 -0.3,0.2 -0.5,0.2 h -2.4 -1.2 c -0.2,0 -0.6,0.1 -1.2,0.1 -0.5,0 -0.8,0 -1.2,0 -0.3,0 -0.8,0 -1.2,0 -0.6,0 -1,-0.2 -1.2,-0.7 l -1.3,-2.4 -1.3,-2.4 c -0.2,-0.4 -0.7,-1.2 -1.3,-2.4 l -1.3,-2.4 -1.3,-2.4 -1.3,-2.4 -0.7,-1.2 c -0.1,-0.3 -0.3,-0.7 -0.6,-1.2 l -1.3,-2.4 -1.3,-2.4 c -0.2,-0.4 -0.4,-0.8 -0.6,-1.1 -0.2,-0.3 -0.4,-0.8 -0.7,-1.3 l -0.1,-0.1 c -0.1,0 -0.1,0 -0.1,0.1 0,0.5 0,1 0,1.3 0,0.4 0,0.8 0,1.3 v 2.6 2.6 2.6 2.6 2.6 c 0,0.5 0,1 0,1.3 0,0.4 0,0.8 0,1.3 0,0.5 0,1 0,1.3 0,0.4 0,0.8 0,1.3 v 2.6 c 0,0.2 -0.1,0.4 -0.3,0.6 -0.2,0.2 -0.3,0.2 -0.5,0.2 -0.5,0 -0.9,0 -1.2,0 -0.3,0 -0.7,0 -1.2,0 -0.2,0.1 -0.4,0.1 -0.4,0.1 z" id="path101" />

            <path class="st8" d="m 291.8,343.4 c -0.7,-0.1 -1.6,-0.3 -2.6,-0.6 -1.1,-0.4 -2,-0.7 -2.5,-1 -0.9,-0.5 -1.6,-0.9 -2.2,-1.3 -0.8,-0.6 -1.4,-1.1 -2.1,-1.7 -0.4,-0.4 -1,-1.1 -1.7,-2.1 -0.6,-0.8 -1.1,-1.6 -1.5,-2.2 -0.4,-0.7 -0.8,-1.6 -1.1,-2.4 -0.2,-0.6 -0.5,-1.4 -0.8,-2.5 -0.1,-0.3 -0.2,-0.7 -0.3,-1.2 -0.2,-0.5 -0.2,-1 -0.3,-1.5 -0.2,-0.8 -0.3,-1.7 -0.3,-2.6 -0.1,-1.2 -0.1,-2.1 -0.1,-2.7 0,-1.2 0,-2.1 0.1,-2.6 l 0.4,-2.6 c 0.2,-1.2 0.4,-2.1 0.6,-2.6 0.2,-0.7 0.5,-1.5 0.9,-2.5 0.4,-1 0.8,-1.8 1.1,-2.4 0.2,-0.5 0.7,-1.2 1.5,-2.2 0.6,-0.8 1.2,-1.5 1.7,-2 0.2,-0.2 0.5,-0.5 0.9,-0.8 0.4,-0.4 0.8,-0.6 1.1,-0.9 0.7,-0.5 1.4,-0.9 2.3,-1.3 0.6,-0.3 1.5,-0.6 2.5,-0.9 0.9,-0.2 1.7,-0.4 2.6,-0.5 1.1,-0.1 2,-0.2 2.6,-0.2 0.5,0 1,0 1.5,0.1 0.5,0.1 0.9,0.1 1.2,0.2 1.1,0.2 2,0.3 2.6,0.5 0.7,0.2 1.6,0.5 2.5,1 1,0.5 1.8,0.9 2.4,1.3 0.5,0.3 1.2,0.9 2.1,1.6 0.2,0.2 0.8,0.9 1.7,2 0.7,1 1.2,1.7 1.5,2.2 0.4,0.8 0.8,1.6 1.1,2.4 0.3,0.8 0.6,1.6 0.8,2.5 0.3,1.1 0.5,2 0.6,2.6 0.1,0.6 0.2,1.4 0.3,2.6 0.1,0.6 0.1,1.4 0.1,2.6 0,1.2 0,2.1 -0.1,2.7 0,0.7 -0.1,1.6 -0.3,2.6 0,0.3 -0.3,1.1 -0.7,2.6 -0.2,0.6 -0.3,1.1 -0.5,1.5 -0.2,0.4 -0.3,0.8 -0.4,1.1 -0.3,0.9 -0.7,1.7 -1.1,2.4 -0.5,0.9 -1,1.6 -1.5,2.3 -0.5,0.8 -1.1,1.5 -1.7,2 -0.6,0.6 -1.3,1.2 -2.1,1.7 -0.5,0.4 -1.3,0.8 -2.3,1.3 -0.8,0.4 -1.6,0.7 -2.5,1 -1.1,0.3 -2,0.5 -2.6,0.6 -0.9,0.1 -1.8,0.2 -2.7,0.2 -1,-0.1 -1.9,-0.2 -2.7,-0.3 z m 5.2,-9 c 0.8,-0.2 1.6,-0.5 2.4,-1.1 0.6,-0.5 1.3,-1.1 1.9,-1.9 0.5,-0.7 1,-1.4 1.3,-2.2 0.3,-0.8 0.6,-1.6 0.8,-2.5 0.3,-1 0.4,-1.8 0.5,-2.6 0.1,-0.6 0.1,-1.4 0.1,-2.3 0,-1.2 0,-2.2 -0.1,-2.9 -0.2,-1.2 -0.3,-2 -0.5,-2.5 -0.2,-0.8 -0.4,-1.6 -0.8,-2.5 -0.3,-0.6 -0.7,-1.3 -1.3,-2.2 -0.7,-0.8 -1.3,-1.3 -1.9,-1.7 -0.8,-0.5 -1.5,-0.9 -2.4,-1.1 -0.7,-0.2 -1.5,-0.3 -2.6,-0.3 -0.8,0 -1.7,0.1 -2.5,0.3 -0.8,0.2 -1.6,0.5 -2.4,1.1 -0.7,0.4 -1.3,1 -1.9,1.7 -0.6,0.9 -1.1,1.6 -1.3,2.2 -0.3,0.6 -0.6,1.4 -0.8,2.4 -0.2,0.9 -0.4,1.7 -0.5,2.5 -0.1,0.8 -0.1,1.8 -0.1,2.9 0,0.3 0,1.1 0.1,2.3 0.1,1.2 0.3,2 0.4,2.6 0.2,0.6 0.5,1.4 0.9,2.4 0.4,0.9 0.8,1.7 1.3,2.2 0.5,0.8 1.1,1.4 1.8,1.9 0.8,0.6 1.6,0.9 2.4,1.1 0.7,0.2 1.5,0.3 2.6,0.3 1.1,0.2 2,0.1 2.6,-0.1 z" id="path103" />

            <path class="st8" d="m 322.9,342.8 c -0.2,0 -0.4,-0.1 -0.6,-0.3 -0.2,-0.2 -0.2,-0.4 -0.2,-0.6 v -2.7 -2.7 -2.7 -2.7 -2.7 L 322,325.7 V 323 l 0.1,-2.7 v -2.7 -2.7 l -0.1,-2.7 0.1,-2.7 -0.1,-2.7 v -2.7 l 0.1,-2.7 c 0,-0.2 0.1,-0.4 0.2,-0.6 0.1,-0.2 0.3,-0.3 0.6,-0.3 h 2.6 l 2.6,0.1 h 2.6 2.6 c 0.5,0 1,0 1.3,0 0.4,0 0.8,0 1.3,0 0.6,0 1,0 1.5,0.1 0.4,0 0.8,0.1 1.1,0.1 1.1,0.2 1.9,0.3 2.6,0.4 0.6,0.1 1.4,0.4 2.4,0.7 1,0.4 1.8,0.7 2.4,1.1 0.6,0.4 1.3,0.9 2,1.6 0.7,0.6 1.3,1.2 1.7,1.9 0.4,0.6 0.8,1.4 1.2,2.3 0.3,0.9 0.6,1.7 0.7,2.4 0.1,0.6 0.1,1.4 0.1,2.6 0,1.1 -0.1,2.1 -0.2,2.9 -0.3,1.1 -0.6,2 -0.9,2.8 -0.5,1 -0.9,1.8 -1.4,2.5 -0.8,0.9 -1.4,1.7 -2,2.1 -0.6,0.5 -1.4,1.1 -2.4,1.6 -0.1,0 -0.1,0.1 -0.2,0.2 0,0.1 0,0.2 0,0.3 0.3,0.4 0.5,0.8 0.6,1.2 0.2,0.3 0.4,0.7 0.6,1.2 l 1.3,2.2 c 0.3,0.6 0.5,0.9 0.6,1.1 l 0.6,1.2 1.3,2.2 c 0.2,0.4 0.4,0.8 0.6,1.1 0.2,0.3 0.4,0.7 0.7,1.2 l 1.3,2.2 c 0.2,0.4 0.4,0.8 0.6,1.1 0.2,0.3 0.4,0.7 0.7,1.2 0,0 0.1,0.1 0.1,0.2 0,0.2 0,0.3 -0.1,0.4 -0.1,0.1 -0.2,0.1 -0.3,0.1 -0.6,0 -1.1,0 -1.5,0 -0.4,0 -0.8,0 -1.4,0 -0.6,0 -1,0 -1.4,0 -0.4,0 -0.9,0 -1.5,0 h -2.8 c -0.3,0 -0.5,-0.1 -0.7,-0.2 -0.2,-0.1 -0.4,-0.3 -0.5,-0.5 l -1.3,-2.4 -1.3,-2.4 -1.3,-2.4 -1.3,-2.3 c -0.3,-0.5 -0.5,-0.9 -0.6,-1.2 -0.2,-0.3 -0.4,-0.7 -0.6,-1.2 l -1.3,-2.4 c -0.2,-0.2 -0.3,-0.3 -0.6,-0.3 h -3.7 c -0.3,0 -0.4,0.1 -0.4,0.4 v 2.8 l -0.1,2.8 0.1,2.8 c 0,0.6 0,1 0,1.4 0,0.4 0,0.8 0,1.3 v 2.8 c 0,0.2 -0.1,0.4 -0.2,0.6 -0.2,0.2 -0.3,0.2 -0.5,0.2 h -2.4 c -0.5,0 -0.9,0 -1.2,0 -0.3,0 -0.7,0 -1.2,0 h -2.5 z m 13.2,-23.2 c 1,0 1.8,-0.1 2.6,-0.3 0.9,-0.2 1.7,-0.5 2.4,-1 0.9,-0.6 1.4,-1.3 1.7,-1.9 0.3,-0.7 0.5,-1.7 0.5,-2.9 0,-0.9 -0.2,-1.6 -0.5,-2.2 -0.3,-0.6 -0.9,-1.2 -1.8,-1.7 -0.8,-0.3 -1.6,-0.6 -2.4,-0.7 -0.5,-0.1 -1.3,-0.1 -2.5,-0.1 l -2.4,-0.1 -2.4,0.1 c -0.1,0 -0.2,0 -0.3,0.1 -0.1,0.1 -0.1,0.2 -0.1,0.3 0,0.5 0,0.9 0,1.2 0,0.3 0,0.8 0,1.3 v 2.5 2.5 2.5 c 0,0.3 0.1,0.4 0.4,0.4 h 2.4 z" id="path105" />

            <path class="st8" d="m 369.4,342.8 c -0.2,0 -0.4,-0.1 -0.6,-0.3 -0.2,-0.2 -0.3,-0.4 -0.3,-0.6 l 0.1,-2.7 -0.1,-2.7 0.1,-1.3 v -1.3 -1.3 l -0.1,-1.3 0.1,-2.7 -0.1,-2.7 0.1,-2.7 v -2.7 l -0.1,-2.7 0.1,-2.7 v -2.7 l 0.1,-2.7 c 0,-0.1 0,-0.2 -0.1,-0.3 -0.1,-0.1 -0.2,-0.1 -0.3,-0.1 H 367 c -0.2,0 -0.6,0.1 -1.2,0.1 l -2.4,-0.1 h -2.3 -1.1 c -0.2,0 -0.6,0.1 -1.2,0.1 -0.2,0 -0.4,-0.1 -0.6,-0.3 -0.2,-0.2 -0.2,-0.4 -0.2,-0.6 0,-0.4 0,-0.8 0,-1.2 0,-0.3 0,-0.7 0,-1.2 l 0.1,-2.2 c 0,-0.5 0,-0.9 0,-1.2 0,-0.3 0,-0.7 0,-1.1 0,-0.2 0.1,-0.4 0.3,-0.6 0.2,-0.2 0.4,-0.3 0.6,-0.3 l 2.6,0.1 h 2.6 l 2.6,-0.1 h 2.6 2.6 2.6 2.5 2.6 2.6 2.6 2.6 c 0.2,0 0.4,0.1 0.6,0.3 0.2,0.2 0.3,0.4 0.3,0.6 v 2.3 2.4 c 0,0.5 0,0.8 0,1.1 0,0.3 0,0.7 0,1.2 0,0.2 -0.1,0.4 -0.2,0.6 -0.2,0.2 -0.3,0.2 -0.6,0.2 l -2.4,0.1 -1.1,-0.1 h -1.2 -2.4 -2.4 c -0.3,0 -0.4,0.1 -0.4,0.4 l 0.1,2.7 -0.1,2.7 0.1,2.7 -0.1,1.3 v 1.3 2.7 2.7 l 0.1,2.7 -0.1,1.3 v 1.3 2.7 l -0.1,2.7 0.1,1.3 0.1,1.3 v 2.7 c 0,0.2 -0.1,0.4 -0.3,0.6 -0.2,0.2 -0.4,0.2 -0.6,0.2 -0.6,0 -1,0 -1.2,0.1 h -1.2 -2.4 z" id="path107" />

            <path class="st8" d="m 397,342.8 c -0.2,0 -0.4,-0.1 -0.6,-0.3 -0.2,-0.2 -0.3,-0.4 -0.3,-0.6 l 0.1,-2.7 v -2.7 -2.7 -2.7 -2.7 -2.7 -2.7 l -0.1,-2.7 c 0,-0.7 0,-1.1 0.1,-1.3 v -1.3 -1.3 l -0.1,-1.3 0.1,-2.7 v -2.7 -2.7 -2.7 -2.7 c 0,-0.2 0.1,-0.4 0.2,-0.6 0.1,-0.2 0.3,-0.3 0.6,-0.3 h 2.4 c 0.6,0 1,0 1.2,0.1 h 1.2 c 0.6,0 1,0 1.2,-0.1 h 1.2 c 0.2,0 0.4,0.1 0.5,0.3 0.2,0.2 0.3,0.4 0.3,0.6 v 2.5 2.5 2.5 2.5 2.5 2.5 c 0,0.3 0.1,0.4 0.4,0.4 l 2.7,-0.1 c 0.5,0 1,0 1.3,0 0.4,0 0.8,0 1.3,0 h 2.7 l 2.7,-0.1 c 0.5,0 1,0 1.3,0 0.4,0 0.8,0 1.3,0 0.3,0 0.4,-0.1 0.4,-0.4 v -2.4 -1.2 c 0,-0.2 0.1,-0.7 0.1,-1.3 0,-0.6 0,-1 -0.1,-1.2 v -1.3 -1.3 c 0,-0.2 0.1,-0.6 0.1,-1.2 V 304 l -0.1,-2.5 c 0,-0.2 0.1,-0.4 0.3,-0.6 0.2,-0.1 0.3,-0.2 0.5,-0.2 0.5,0 0.9,0 1.2,0 0.3,0 0.7,0 1.2,0 h 2.4 c 0.5,0 0.9,0 1.2,0 0.3,0 0.7,0 1.2,0 0.2,0 0.4,0.1 0.6,0.2 0.2,0.2 0.3,0.3 0.3,0.6 v 2.7 l -0.1,2.7 0.1,2.7 v 2.7 l -0.1,2.7 0.1,2.7 -0.1,2.7 v 2.7 c 0,0.6 0,1 0,1.4 0,0.4 0,0.8 0,1.3 l -0.1,2.7 v 1.3 c 0,0.2 0.1,0.7 0.1,1.3 l -0.1,2.7 v 2.7 2.7 2.7 c 0,0.2 -0.1,0.4 -0.2,0.6 -0.2,0.2 -0.3,0.2 -0.6,0.2 h -2.4 -2.4 -2.2 c -0.2,0 -0.4,-0.1 -0.5,-0.2 -0.2,-0.1 -0.3,-0.3 -0.3,-0.6 0,-0.6 0,-1 0,-1.4 0,-0.4 0,-0.8 0,-1.3 l -0.1,-2.8 c 0,-0.5 0,-1 0,-1.3 0,-0.4 0,-0.8 0,-1.4 v -2.8 c 0,-0.5 0,-1 0,-1.3 0,-0.4 0,-0.8 0,-1.4 l 0.1,-2.8 c 0,-0.1 0,-0.2 -0.1,-0.3 -0.1,-0.1 -0.2,-0.1 -0.3,-0.1 h -1.3 l -1.3,0.1 -2.7,-0.1 h -2.7 -2.7 -2.6 c -0.1,0 -0.2,0 -0.3,0.1 -0.1,0.1 -0.1,0.2 -0.1,0.3 0,0.8 0,1.2 0.1,1.5 v 2 2.1 2.8 2.8 1.4 c 0,0.2 -0.1,0.7 -0.1,1.4 0,0.6 0,1 0,1.4 0,0.4 0,0.8 0,1.3 0,0.2 -0.1,0.4 -0.3,0.6 -0.2,0.2 -0.3,0.2 -0.5,0.2 h -2.4 c -0.6,0 -1,0 -1.2,0.1 h -1.2 -2.5 z" id="path109" />

            <path class="st8" d="m 448.7,342.8 c -0.2,0 -0.4,-0.1 -0.6,-0.3 -0.2,-0.2 -0.3,-0.4 -0.3,-0.6 l 0.1,-2.7 v -2.7 -2.7 -2.7 -2.7 -2.7 -2.7 l -0.1,-2.7 c 0,-0.7 0,-1.1 0.1,-1.3 v -1.3 -1.3 l -0.1,-1.3 0.1,-2.7 v -2.7 -2.7 -2.7 -2.7 c 0,-0.2 0.1,-0.4 0.2,-0.6 0.1,-0.2 0.3,-0.3 0.6,-0.3 h 2.4 c 0.6,0 1,0 1.2,0.1 h 1.2 c 0.6,0 1,0 1.2,-0.1 h 1.2 c 0.2,0 0.4,0.1 0.5,0.3 0.2,0.2 0.3,0.4 0.3,0.6 v 2.5 2.5 2.5 2.5 2.5 2.5 c 0,0.3 0.1,0.4 0.4,0.4 l 2.7,-0.1 c 0.5,0 1,0 1.3,0 0.4,0 0.8,0 1.3,0 h 2.7 l 2.7,-0.1 c 0.5,0 1,0 1.3,0 0.4,0 0.8,0 1.3,0 0.3,0 0.4,-0.1 0.4,-0.4 v -2.4 -1.2 c 0,-0.2 0.1,-0.7 0.1,-1.3 0,-0.6 0,-1 -0.1,-1.2 v -1.3 -1.3 c 0,-0.2 0.1,-0.6 0.1,-1.2 V 304 l -0.1,-2.5 c 0,-0.2 0.1,-0.4 0.3,-0.6 0.2,-0.1 0.3,-0.2 0.5,-0.2 0.5,0 0.9,0 1.2,0 0.3,0 0.7,0 1.2,0 h 2.4 c 0.5,0 0.9,0 1.2,0 0.3,0 0.7,0 1.2,0 0.2,0 0.4,0.1 0.6,0.2 0.2,0.2 0.3,0.3 0.3,0.6 v 2.7 l -0.1,2.7 0.1,2.7 v 2.7 l -0.1,2.7 0.1,2.7 -0.1,2.7 v 2.7 c 0,0.6 0,1 0,1.4 0,0.4 0,0.8 0,1.3 l -0.1,2.7 v 1.3 c 0,0.2 0.1,0.7 0.1,1.3 l -0.1,2.7 v 2.7 2.7 2.7 c 0,0.2 -0.1,0.4 -0.2,0.6 -0.2,0.2 -0.3,0.2 -0.6,0.2 h -2.4 -2.4 -2.4 c -0.2,0 -0.4,-0.1 -0.5,-0.2 -0.2,-0.1 -0.3,-0.3 -0.3,-0.6 0,-0.6 0,-1 0,-1.4 0,-0.4 0,-0.8 0,-1.3 l -0.1,-2.8 c 0,-0.5 0,-1 0,-1.3 0,-0.4 0,-0.8 0,-1.4 v -2.8 c 0,-0.5 0,-1 0,-1.3 0,-0.4 0,-0.8 0,-1.4 l 0.1,-2.8 c 0,-0.1 0,-0.2 -0.1,-0.3 -0.1,-0.1 -0.2,-0.1 -0.3,-0.1 H 469 l -1.3,0.1 -2.7,-0.1 h -2.7 -2.7 -2.6 c -0.1,0 -0.2,0 -0.3,0.1 -0.1,0.1 -0.1,0.2 -0.1,0.3 0,0.8 0,1.2 0.1,1.5 v 2 2.1 2.8 2.8 1.4 c 0,0.2 -0.1,0.7 -0.1,1.4 0,0.6 0,1 0,1.4 0,0.4 0,0.8 0,1.3 0,0.2 -0.1,0.4 -0.3,0.6 -0.2,0.2 -0.3,0.2 -0.5,0.2 h -2.4 c -0.6,0 -1,0 -1.2,0.1 h -1.2 -2.3 z" id="path111" />

            <path class="st8" d="m 495.7,342.8 h -1.2 -2.4 c -0.2,0 -0.4,-0.1 -0.6,-0.2 -0.2,-0.1 -0.2,-0.3 -0.2,-0.6 v -1.3 c 0,-0.2 -0.1,-0.7 -0.1,-1.3 l 0.1,-2.7 v -2.7 -1.3 c 0,-0.2 -0.1,-0.7 -0.1,-1.3 l 0.1,-2.7 V 326 c 0,-0.6 0,-1 0,-1.4 0,-0.4 0,-0.8 0,-1.3 l 0.1,-2.7 v -2.7 -2.7 -2.7 l -0.1,-2.7 0.1,-2.7 v -2.7 l -0.1,-2.7 c 0,-0.2 0.1,-0.4 0.3,-0.6 0.2,-0.2 0.4,-0.3 0.6,-0.3 h 2.4 2.4 2.4 c 0.2,0 0.4,0.1 0.5,0.3 0.1,0.2 0.2,0.4 0.2,0.6 l 0.1,2.7 v 2.7 2.7 l -0.1,2.7 v 2.7 2.7 2.7 2.7 2.8 c 0,0.7 0,1.1 0.1,1.3 v 1.3 1.3 c 0,0.2 -0.1,0.7 -0.1,1.3 v 2.7 l 0.1,1.3 v 1.3 2.7 2.7 c 0,0.2 -0.1,0.4 -0.3,0.6 -0.2,0.2 -0.3,0.3 -0.5,0.3 H 497 c -0.6,-0.1 -1.1,-0.1 -1.3,-0.1 z" id="path113" />

            <path class="st8" d="m 524.1,342.8 h -1.3 -2.6 l -2.6,0.1 c -0.5,0 -0.9,0 -1.2,0 -0.3,0 -0.8,0 -1.3,0 h -2.6 c -0.2,0 -0.4,-0.1 -0.6,-0.2 -0.2,-0.1 -0.2,-0.3 -0.2,-0.6 l -0.1,-2.7 c 0,-0.7 0,-1.1 0.1,-1.3 v -1.3 -2.7 -1.3 c 0,-0.2 -0.1,-0.7 -0.1,-1.3 v -2.7 c 0,-0.7 0,-1.1 0.1,-1.3 v -1.3 -3.2 -1.3 c 0,-0.2 -0.1,-0.7 -0.1,-1.3 l 0.1,-2.7 v -2.7 -2.7 l -0.1,-2.7 v -2.7 c 0,-0.7 0,-1.1 0.1,-1.3 v -1.3 -2.7 c 0,-0.2 0.1,-0.4 0.2,-0.6 0.1,-0.2 0.3,-0.3 0.6,-0.3 0.4,0 0.8,0 1.2,0 0.3,0 0.7,0 1.2,0 h 2.4 2.4 c 0.2,0 0.4,0.1 0.6,0.2 0.1,0.2 0.2,0.3 0.2,0.6 0,0.7 0,1.1 0.1,1.3 v 1.9 2.1 2.7 2.7 l -0.1,2.7 v 2.6 l 0.1,2.7 -0.1,2.7 0.1,2.7 v 2.7 l -0.1,2.7 0.1,2.7 c 0,0.3 0.1,0.4 0.4,0.4 h 2.5 c 0.4,0 0.8,0 1.2,0 0.3,0 0.7,0 1.2,0 h 2.5 2.5 l 2.5,-0.1 2.5,0.1 c 0.2,0 0.4,0.1 0.6,0.2 0.2,0.2 0.2,0.3 0.2,0.6 v 2.3 l -0.1,2.4 v 2.3 c 0,0.2 -0.1,0.4 -0.2,0.6 -0.1,0.2 -0.3,0.3 -0.5,0.3 h -2.6 l -2.6,-0.1 H 528 l -2.6,0.1 c -0.6,0 -1.1,0 -1.3,0 z" id="path115" />

            <path class="st8" d="m 557.4,342.8 h -1.3 -2.6 l -2.6,0.1 c -0.5,0 -0.9,0 -1.2,0 -0.3,0 -0.8,0 -1.3,0 h -2.6 c -0.2,0 -0.4,-0.1 -0.6,-0.2 -0.2,-0.1 -0.2,-0.3 -0.2,-0.6 l -0.1,-2.7 c 0,-0.7 0,-1.1 0.1,-1.3 v -1.3 -2.7 -1.3 c 0,-0.2 -0.1,-0.7 -0.1,-1.3 v -2.7 c 0,-0.7 0,-1.1 0.1,-1.3 v -1.3 -3.2 -1.3 c 0,-0.2 -0.1,-0.7 -0.1,-1.3 l 0.1,-2.7 v -2.7 -2.7 l -0.1,-2.7 v -2.7 c 0,-0.7 0,-1.1 0.1,-1.3 v -1.3 -2.7 c 0,-0.2 0.1,-0.4 0.2,-0.6 0.2,-0.2 0.3,-0.3 0.6,-0.3 0.5,0 0.8,0 1.2,0 0.3,0 0.8,0 1.2,0 h 2.4 2.4 c 0.2,0 0.4,0.1 0.6,0.2 0.1,0.2 0.2,0.3 0.2,0.6 0,0.7 0,1.1 0.1,1.3 v 1.9 2.1 2.7 2.7 l -0.1,2.7 v 2.6 l 0.1,2.7 -0.1,2.7 0.1,2.7 v 2.7 l -0.1,2.7 0.1,2.7 c 0,0.3 0.1,0.4 0.4,0.4 h 2.5 c 0.5,0 0.8,0 1.2,0 0.3,0 0.7,0 1.2,0 h 2.5 2.5 l 2.5,-0.1 2.5,0.1 c 0.2,0 0.4,0.1 0.6,0.2 0.2,0.2 0.2,0.3 0.2,0.6 v 2.3 l -0.1,2.4 v 2.3 c 0,0.2 -0.1,0.4 -0.2,0.6 -0.1,0.2 -0.3,0.3 -0.5,0.3 h -2.6 l -2.6,-0.1 h -2.6 l -2.6,0.1 c -0.7,0 -1.2,0 -1.4,0 z" id="path117" />

            <path class="st8" d="m 590.1,343.5 c 0,0 -0.3,0 -0.8,-0.1 -0.9,-0.1 -1.7,-0.3 -2.6,-0.5 -1.1,-0.3 -2,-0.6 -2.5,-0.8 -0.3,-0.1 -1.1,-0.5 -2.4,-1.1 -0.9,-0.5 -1.7,-0.9 -2.2,-1.3 -0.6,-0.3 -1.3,-0.8 -2.1,-1.5 -0.2,-0.2 -0.3,-0.4 -0.3,-0.6 0,-0.2 0.1,-0.4 0.2,-0.5 0.3,-0.4 0.6,-0.7 0.8,-1 0.2,-0.3 0.4,-0.5 0.7,-0.8 l 1.5,-1.8 1.5,-1.8 c 0.1,-0.2 0.3,-0.3 0.6,-0.3 0.2,0 0.4,0.1 0.6,0.2 l 2,1.3 c 0.7,0.4 1.4,0.7 2.2,1 1.1,0.4 1.9,0.6 2.4,0.7 0.7,0.1 1.5,0.2 2.4,0.2 1,0 1.9,-0.1 2.5,-0.3 1,-0.3 1.8,-0.7 2.2,-1.2 0.6,-0.6 1,-1.4 1,-2.4 0,-0.8 -0.3,-1.6 -1,-2.2 -0.5,-0.5 -1.1,-1 -1.9,-1.5 -0.6,-0.3 -1.4,-0.7 -2.2,-1 -0.4,-0.2 -1.1,-0.5 -2.2,-1 -0.3,-0.1 -0.7,-0.3 -1.1,-0.5 -0.4,-0.1 -0.9,-0.3 -1.3,-0.6 -0.2,-0.1 -1,-0.5 -2.4,-1.2 -0.2,-0.1 -0.6,-0.3 -1.1,-0.6 -0.5,-0.3 -0.9,-0.6 -1.3,-0.8 -0.7,-0.5 -1.3,-1.1 -2,-1.7 -0.7,-0.7 -1.2,-1.4 -1.6,-2.2 -0.5,-0.9 -0.8,-1.7 -1,-2.5 -0.2,-0.7 -0.2,-1.7 -0.2,-2.8 0,-0.9 0.1,-1.8 0.2,-2.5 0.2,-1 0.4,-1.9 0.8,-2.5 0.5,-0.9 1,-1.7 1.4,-2.2 0.7,-0.8 1.3,-1.4 1.9,-1.9 0.6,-0.5 1.3,-0.9 2.2,-1.3 0.7,-0.5 1.6,-0.8 2.5,-1.1 1,-0.3 1.8,-0.5 2.5,-0.6 0.8,-0.1 1.7,-0.2 2.6,-0.2 1.1,0 2.1,0.1 2.9,0.2 0.7,0.1 1.6,0.3 2.8,0.7 0.9,0.3 1.7,0.6 2.6,1.1 0.7,0.4 1.5,0.9 2.4,1.6 0.7,0.5 1.5,1.1 2.2,1.9 0.2,0.2 0.2,0.4 0.2,0.6 0,0.2 -0.1,0.4 -0.2,0.6 l -1.6,1.7 c -0.3,0.3 -0.6,0.6 -0.8,0.8 -0.2,0.2 -0.5,0.5 -0.9,0.9 l -1.6,1.7 c -0.2,0.2 -0.3,0.2 -0.6,0.2 -0.2,0 -0.4,-0.1 -0.6,-0.2 -0.1,-0.1 -0.3,-0.3 -0.7,-0.6 -0.4,-0.3 -0.8,-0.6 -1.2,-0.9 -0.9,-0.5 -1.6,-0.9 -2.3,-1 -0.6,-0.1 -1.5,-0.2 -2.5,-0.2 -0.9,0 -1.7,0.1 -2.3,0.3 -0.8,0.2 -1.5,0.5 -2.1,1 -0.6,0.5 -1,1.2 -1,2 0,0.9 0.5,1.7 1.5,2.4 0.5,0.4 1.3,0.9 2.6,1.5 0.3,0.1 0.7,0.3 1.1,0.5 0.4,0.2 1,0.4 1.6,0.7 l 2.4,1 c 1,0.4 1.8,0.8 2.3,1.1 0.3,0.2 1.1,0.6 2.2,1.3 0.7,0.4 1.4,1 2,1.5 0.7,0.7 1.2,1.3 1.7,1.9 0.3,0.4 0.7,1.2 1.2,2.2 0.3,0.8 0.5,1.6 0.7,2.5 0.1,1 0.2,1.8 0.2,2.4 0,0.7 -0.1,1.6 -0.3,2.8 -0.2,0.9 -0.5,1.8 -0.9,2.6 -0.4,0.8 -0.9,1.6 -1.5,2.3 -0.7,0.8 -1.3,1.5 -1.9,1.9 -0.7,0.5 -1.4,1 -2.2,1.5 -0.7,0.3 -1.6,0.6 -2.5,0.9 -0.8,0.3 -1.6,0.5 -2.6,0.6 -0.6,0.1 -1.5,0.2 -2.7,0.2 -1.5,-0.7 -2.1,-0.7 -2.1,-0.7 z" id="path119" />

         </g>

         <g id="g137">
            <g id="g127">
               <path class="st9 chk5" d="m 543.6,355.7 c -6.6,15.6 -16.1,29.9 -27.9,42.1 -12.6,13 -27.8,23.5 -44.4,30.6 -16.7,7.2 -34.8,11.1 -53.1,11.3 -18.3,0.3 -36.6,-3.1 -53.7,-9.9 -17.1,-6.8 -32.8,-17 -46.1,-29.9 -13,-12.6 -23.5,-27.8 -30.8,-44.4 H 284 c 0,0.1 0,0.1 0.1,0.2 7,17.7 17.6,33.9 30.9,47.6 13.3,13.7 29.4,24.8 47,32.4 17.6,7.6 36.9,11.7 56.2,12 19.3,0.3 38.7,-3.3 56.8,-10.5 18,-7.2 34.7,-18 48.7,-31.6 14,-13.6 25.3,-30 33.1,-48.1 0.3,-0.7 0.5,-1.4 0.8,-2 h -14 z" id="path123" />

               <path class="st9 chk4" d="m 323.3,398.6 c 12.8,12.1 27.9,21.6 44.2,28 16.3,6.4 33.9,9.6 51.3,9.3 17.5,-0.2 34.8,-4.2 50.6,-11.4 15.8,-7.2 30.1,-17.5 41.9,-30.1 10.6,-11.3 19.8,-24.5 26,-38.6 h -3.9 c -6.2,12.7 -16.4,25.8 -26.3,35.8 -11.6,11.7 -27.2,21.5 -42.3,27.8 -15.1,6.4 -29.8,7.8 -46,7.6 -16.3,-0.2 -32.5,-3.6 -47.4,-9.9 -14.9,-6.3 -28.6,-15.5 -39.9,-26.9 -10.1,-10 -18.3,-21.7 -24.4,-34.5 h -14.3 c 7.2,16.2 17.7,30.8 30.5,42.9 z" id="path125" />

            </g>

            <g id="g135">
               <path class="st9 chk3" d="m 296.8,242.4 c 6.6,-16.7 16.6,-32.1 29.2,-45 12.6,-13 27.8,-23.5 44.4,-30.6 16.7,-7.2 34.8,-11.1 53.1,-11.3 18.3,-0.3 36.6,3.1 53.7,9.9 17.1,6.8 32.8,17 46.1,29.9 13.2,12.9 24,28.4 31.3,45.5 4.5,10.3 7.6,21.2 9.5,32.3 l 2.6,2.2 c -1.5,-12.2 -4.6,-24.2 -9.1,-35.7 -7,-17.7 -17.6,-33.9 -30.9,-47.6 -13.3,-13.7 -29.4,-24.8 -47,-32.4 -17.6,-7.6 -36.9,-11.7 -56.2,-12 -19.3,-0.3 -38.7,3.3 -56.8,10.5 -18,7.2 -34.7,18 -48.7,31.6 -14,13.6 -25.3,30 -33.1,48.1 -5.1,11.9 -8.7,24.5 -10.6,37.4 l 16.8,-14.8 c 1.5,-6.3 3.4,-12.2 5.7,-18 z" id="path129" />

               <path class="st9 chk2" d="m 548.9,239.5 c -7.2,-16.2 -17.7,-30.8 -30.4,-42.8 -12.8,-12.1 -27.8,-21.6 -44.1,-28 -16.3,-6.4 -33.8,-9.6 -51.2,-9.3 -17.4,0.2 -34.8,4.2 -50.5,11.4 -15.8,7.2 -30,17.5 -41.7,30.1 -11.8,12.6 -21.1,27.3 -27.3,43.3 -0.9,2.4 -1.8,4.9 -2.6,7.3 l 6.3,-7.2 c 6.4,-14.8 17.5,-29.7 28.8,-41.2 11.5,-11.7 24.9,-20.2 40,-26.5 15,-6.4 30.9,-8.6 47.1,-8.3 16.2,0.2 32.4,3.6 47.3,9.9 14.9,6.3 28.5,15.5 39.8,26.9 11.4,11.4 20.5,24.9 26.6,39.6 1.1,2.7 2.1,5.5 3.1,8.3 l 17.8,14.6 c -2.1,-9.6 -5,-19.1 -9,-28.1 z" id="path131" />

               <path class="st9 chk1" d="m 571.8,290 v 0 l -6,-4.9 -0.7,-0.6 -5.2,-4.2 c 0,0 0,0 0,-0.1 l -15.7,-12.9 c 0,0.1 0,0.2 0.1,0.3 l -31.5,-25.4 -15.6,12.1 -28.6,-37.6 -17.3,15.6 -32.2,-40.9 -0.1,-0.2 v 0 0 0 0 -0.1 l -1.1,1.5 -35.9,45.7 -18.8,-19.5 -27.9,34.5 -11.8,-9.6 -19.2,16.3 -2.7,2.4 -5.1,4.5 -8.3,7.3 -12.5,11 -7,6.1 h 28.6 l 4.6,-4.5 7.1,-7 -3,-5.7 -0.5,-0.9 18.4,-17.8 1.2,1.1 5.1,5.3 -4.1,3.8 -8.3,7.7 4.6,6.2 -8.2,11.9 h 19.8 10.6 7 19.7 l -11.1,-22.7 9,-7.9 -10.7,-15.5 6.8,-12.8 21.9,28.8 -8.7,10.4 5.9,19.7 h 7.4 28.2 6.4 l -14.9,-35.4 11.8,-9.1 -12.3,-20.2 9.3,-15.3 25.3,37.5 -11.5,12.2 4.5,30.2 h 7.5 9.2 9.2 8.5 l -9.9,-23.6 8.5,-6.6 -8.9,-14.5 6.8,-11.1 18.3,27.2 -8.3,8.8 3,19.8 h 8 13.1 20.4 l -3.5,-4.4 -0.2,-0.3 0.2,-0.3 5.8,-7.9 -11.3,-10.5 2.1,-7.2 0.6,-2 22.1,19.2 -1.7,3.2 -2.3,4.3 5.6,5.9 h 31.9 z" id="path133" />

            </g>

         </g>

      </g>
   </g>
   <style type="text/css" id="style10">
	.st0{fill:#FFFFFF;}
	.st1{display:none;}
	.st2{display:inline;}
	.st3{fill:none;}
	.st4{fill:#fff;}
	.st5{display:inline;fill:none;}
	.st6{display:inline;opacity:1;}
	.st7{fill:#fff;}

               <!-- Text -->
	.st8, .text,
   .chk1, .mountain,
   .chk2, .upper-circle-b,
   .chk3, .upper-circle-a,
   .chk4, .lower-circle-a,
   .chk5, .lower-circle-b {fill: #fff}
   
   </style>
</svg>
